<?xml version="1.0" standalone="no"?>
<!DOCTYPE svg PUBLIC "-//W3C//DTD SVG 20010904//EN"
 "http://www.w3.org/TR/2001/REC-SVG-20010904/DTD/svg10.dtd">
<svg version="1.0" xmlns="http://www.w3.org/2000/svg"
 width="1024.000000pt" height="1024.000000pt" viewBox="0 0 1024.000000 1024.000000"
 preserveAspectRatio="xMidYMid meet">

<g transform="translate(0.000000,1024.000000) scale(0.100000,-0.100000)"
fill="#000000" stroke="none">
<path d="M5288 7283 c7 -3 16 -2 19 1 4 3 -2 6 -13 5 -11 0 -14 -3 -6 -6z"/>
<path d="M4615 7231 c-45 -15 -110 -45 -145 -66 -36 -22 -71 -38 -79 -37 -7 2
-10 -1 -7 -7 6 -9 -31 -37 -45 -34 -13 4 -70 -58 -63 -69 4 -7 3 -8 -5 -4 -14
9 -34 -6 -63 -48 l-22 -31 25 21 c30 28 135 80 219 111 57 20 51 23 -15 7 -11
-2 -3 5 17 16 20 11 48 31 62 45 14 14 32 26 41 26 24 2 28 3 62 18 18 7 31
17 28 21 -3 4 8 10 23 14 32 7 85 46 62 45 -8 0 -51 -12 -95 -28z"/>
<path d="M4500 6854 c-115 -24 -116 -24 -99 -35 10 -7 7 -8 -11 -4 -18 4 -33
0 -49 -14 -26 -23 -36 -27 -26 -11 3 6 -1 7 -9 4 -9 -3 -13 -10 -10 -15 3 -5
-2 -6 -10 -3 -8 3 -25 -5 -38 -18 -13 -13 -27 -22 -31 -20 -12 4 -96 -61 -142
-110 -22 -24 -31 -36 -19 -28 11 8 8 4 -7 -10 -29 -26 -83 -132 -95 -185 -6
-26 -2 -23 27 20 18 28 39 56 46 63 16 16 17 26 2 16 -8 -4 -8 0 0 15 7 11 14
21 17 21 3 0 2 -6 -2 -12 -4 -7 19 15 50 50 32 34 64 62 71 62 8 0 26 16 41
35 18 24 30 33 37 26 12 -12 69 28 60 42 -3 6 -1 7 6 3 6 -4 25 3 43 15 17 13
28 18 24 11 -10 -17 -2 -15 39 9 24 15 34 27 30 37 -4 11 -2 12 7 5 9 -7 31
-2 73 18 68 31 66 33 -25 13z m-399 -257 l-24 -22 19 27 c10 14 21 24 23 22 3
-3 -6 -15 -18 -27z"/>
<path d="M4322 6731 c-22 -16 -43 -35 -47 -41 -4 -6 16 5 44 25 46 33 58 45
48 45 -2 0 -22 -13 -45 -29z"/>
<path d="M4602 6739 c-29 -5 -74 -20 -100 -35 -26 -14 -38 -22 -27 -18 11 4
67 20 125 35 104 28 105 35 2 18z"/>
<path d="M5066 6739 c3 -5 12 -9 20 -9 8 0 14 -4 14 -9 0 -5 7 -12 16 -15 8
-3 12 -2 9 4 -3 6 1 7 9 4 9 -3 14 -10 11 -14 -3 -5 9 -3 26 3 24 9 27 13 13
15 -11 2 -43 10 -72 17 -28 7 -49 9 -46 4z"/>
<path d="M5238 6703 c7 -3 16 -2 19 1 4 3 -2 6 -13 5 -11 0 -14 -3 -6 -6z"/>
<path d="M5373 6703 c9 -2 23 -2 30 0 6 3 -1 5 -18 5 -16 0 -22 -2 -12 -5z"/>
<path d="M4168 6622 c-19 -8 -65 -72 -85 -119 -7 -18 -12 -33 -10 -33 2 0 19
19 37 42 19 23 28 38 22 34 -28 -17 -8 15 37 60 25 26 25 26 -1 16z"/>
<path d="M4159 6573 c-13 -16 -12 -17 4 -4 16 13 21 21 13 21 -2 0 -10 -8 -17
-17z"/>
<path d="M4586 5905 c-9 -26 -7 -32 5 -12 6 10 9 21 6 23 -2 3 -7 -2 -11 -11z"/>
<path d="M4904 5827 c-3 -8 2 -31 10 -52 11 -26 16 -73 17 -154 0 -64 4 -138
9 -166 l7 -50 3 55 c5 102 -3 287 -13 297 -3 3 -3 11 0 19 3 8 1 14 -5 14 -6
0 -8 8 -5 19 6 22 -15 39 -23 18z"/>
<path d="M4512 5327 c-35 -119 -97 -269 -137 -328 l-24 -36 76 -13 c41 -6 89
-18 107 -25 32 -14 33 -13 29 9 -6 31 23 285 37 320 7 18 15 26 25 22 11 -4
13 3 10 35 -2 22 -9 48 -16 57 -23 30 -63 72 -68 72 -3 0 -21 -51 -39 -113z
m33 -395 c-3 -3 -11 0 -18 7 -9 10 -8 11 6 5 10 -3 15 -9 12 -12z"/>
<path d="M4910 5415 c0 -14 2 -25 4 -25 2 0 6 11 8 25 3 14 1 25 -3 25 -5 0
-9 -11 -9 -25z"/>
<path d="M4926 5375 c-3 -8 -1 -15 4 -15 6 0 10 7 10 15 0 8 -2 15 -4 15 -2 0
-6 -7 -10 -15z"/>
<path d="M4901 5340 c0 -8 4 -24 9 -35 5 -13 9 -14 9 -5 0 8 -4 24 -9 35 -5
13 -9 14 -9 5z"/>
<path d="M6098 5063 c6 -2 18 -2 25 0 6 3 1 5 -13 5 -14 0 -19 -2 -12 -5z"/>
<path d="M4140 4906 c0 -9 -5 -16 -11 -16 -8 0 -7 -6 2 -16 12 -15 11 -16 -11
-11 -17 5 -14 2 8 -8 18 -9 38 -12 45 -9 7 4 9 3 4 -1 -10 -12 100 -56 120
-48 10 4 14 2 10 -4 -4 -5 5 -15 19 -22 19 -8 24 -8 18 1 -5 8 -2 9 9 5 10 -4
24 -10 34 -14 10 -4 14 -3 9 5 -3 6 0 17 7 24 12 11 12 15 -2 25 -14 11 -14
12 -1 13 21 1 -70 36 -160 61 -41 12 -80 23 -87 26 -7 3 -13 -2 -13 -11z"/>
<path d="M3427 4466 c12 -22 120 -143 193 -217 207 -211 451 -372 745 -492
212 -86 389 -131 640 -162 123 -15 438 -19 530 -6 29 4 -51 7 -190 8 -274 2
-348 12 -555 74 -380 114 -685 324 -964 664 -27 33 -53 64 -57 68 -4 5 -9 4
-13 -1 -3 -5 6 -21 20 -35 26 -27 25 -47 -3 -47 -10 0 -14 6 -10 20 5 18 -4
25 -26 21 -4 -1 -7 6 -5 15 4 25 -22 30 -29 6 -3 -13 -11 -18 -19 -15 -8 3
-14 0 -14 -6 0 -6 -9 -11 -20 -11 -14 0 -18 -5 -13 -17 3 -12 0 -10 -11 5 -10
12 -22 20 -27 17 -5 -4 -9 -2 -9 2 0 5 -9 14 -21 21 -17 11 -20 11 -14 0 3 -7
0 -5 -8 5 -8 9 -20 17 -27 17 -7 0 -11 3 -8 6 8 7 -66 74 -81 74 -7 0 -9 -5
-4 -14z"/>
<path d="M3707 4463 c15 -41 36 -64 47 -53 8 8 4 17 -14 31 -14 12 -18 17 -10
13 13 -7 13 -5 1 9 -18 22 -32 22 -24 0z"/>
<path d="M5675 3621 c-49 -8 -79 -17 -65 -19 14 -1 70 6 125 17 55 10 84 19
65 19 -19 0 -75 -8 -125 -17z"/>
</g>
</svg>
